<?xml version="1.0" standalone="no"?>
<!DOCTYPE svg PUBLIC "-//W3C//DTD SVG 20010904//EN"
 "http://www.w3.org/TR/2001/REC-SVG-20010904/DTD/svg10.dtd">
<svg version="1.0" xmlns="http://www.w3.org/2000/svg"
 width="512.000000pt" height="512.000000pt" viewBox="0 0 512.000000 512.000000"
 preserveAspectRatio="xMidYMid meet">

<g transform="translate(0.000000,512.000000) scale(0.100000,-0.100000)"
fill="#000000" stroke="none">
<path d="M1585 3706 c-451 -774 -821 -1414 -823 -1420 -2 -8 293 -122 820
-317 l823 -305 3 864 c1 475 1 1251 0 1725 l-3 861 -820 -1408z"/>
<path d="M2710 3389 l0 -1726 825 306 c622 230 824 309 820 319 -4 12 -1575
2712 -1627 2797 -17 29 -18 -20 -18 -1696z"/>
<path d="M751 1943 c37 -48 1596 -1873 1625 -1903 l34 -35 -2 670 -3 669 -830
308 c-456 169 -832 308 -834 308 -2 0 3 -8 10 -17z"/>
<path d="M3551 1656 c-448 -167 -820 -307 -828 -312 -11 -8 -13 -119 -11 -673
l3 -664 815 954 c892 1043 855 999 843 998 -4 0 -374 -137 -822 -303z"/>
</g>
</svg>
