<svg width="300" height="20" viewBox="0 0 144 13" fill="none" xmlns="http://www.w3.org/2000/svg">
<path fill-rule="evenodd" clip-rule="evenodd" d="M46.7135 0H45.7391L40.0267 12.8545L42.3763 12.8547L43.4594 10.349L45.8731 10.3495L46.5954 8.73125L44.042 8.73105L46.7162 2.47384L51.0533 12.8561H53.4027L47.6941 0.000202807L46.7196 0H46.7135Z" fill="white"/>
<path fill-rule="evenodd" clip-rule="evenodd" d="M17.6516 0.0111478L17.6533 12.8466L19.8805 12.8464L19.8788 0.0107422L17.6516 0.0111478Z" fill="white"/>
<path fill-rule="evenodd" clip-rule="evenodd" d="M0 0.00683594V1.83068H4.26722V12.8532H6.48242V1.83068H9.94307L10.7597 0.00683594H0Z" fill="white"/>
<path fill-rule="evenodd" clip-rule="evenodd" d="M26.7661 0.00488281V1.82873H31.0331V12.8513H33.2483V1.82873H36.7092L37.5256 0.00488281H26.7661Z" fill="white"/>
<path fill-rule="evenodd" clip-rule="evenodd" d="M88.583 0V12.8566H97.0223V11.041H90.7804V7.36048H93.6505L94.3767 5.66339H90.7804V1.82547H97.0223V0H88.583Z" fill="white"/>
<path fill-rule="evenodd" clip-rule="evenodd" d="M79.425 0.000202807L74.308 6.95608L69.1789 0.00121684L67.1868 0.00141965L67.1887 12.857L69.3644 12.8568L69.3633 3.25729L74.0325 9.4425H74.5534L79.2211 3.23619L79.2224 12.8555L81.3981 12.8551L81.3966 0L79.425 0.000202807Z" fill="white"/>
<path fill-rule="evenodd" clip-rule="evenodd" d="M111.845 9.84157C112.648 9.04231 113.05 7.893 113.05 6.39324C113.049 4.90666 112.649 3.77378 111.849 2.99439C111.049 2.21521 109.879 1.82582 108.34 1.82602L106.011 1.82622L106.012 11.041L108.402 11.0406C109.894 11.0404 111.041 10.6406 111.845 9.84157ZM112.191 0.755014C113.212 1.25818 113.999 1.9897 114.551 2.9502C115.096 3.91029 115.368 5.05453 115.368 6.38332C115.368 7.71191 115.1 8.86304 114.562 9.83652C114.024 10.81 113.251 11.5565 112.243 12.0765C111.235 12.5961 110.04 12.8559 108.658 12.8561L103.816 12.8567L103.814 0.0013823L108.564 0.000976685C109.96 0.000773878 111.169 0.252052 112.191 0.755014Z" fill="white"/>
<path fill-rule="evenodd" clip-rule="evenodd" d="M121.934 0.0101712L124.161 0.00976562L124.162 12.8454L121.936 12.8456L121.934 0.0101712Z" fill="white"/>
<path fill-rule="evenodd" clip-rule="evenodd" d="M136.337 0H137.312H137.318L138.293 0.000202807L144.001 12.8564L141.652 12.8561L137.314 2.47384L134.64 8.73125L137.194 8.73146L136.528 10.3495L134.058 10.349L132.974 12.8549L130.625 12.8547L136.337 0Z" fill="white"/>
</svg>
